<?xml version="1.0" encoding="UTF-8"?>
<svg width="18px" height="18px" viewBox="0 0 18 18" version="1.1" xmlns="http://www.w3.org/2000/svg">
    <g stroke="none" stroke-width="1" fill="none" fill-rule="evenodd">
        <path d="M14.94,9.5 C14.94,7.5 16.5,6.5 16.6,6.44 C15.6,4.94 14.1,4.7 13.5,4.68 C12.1,4.5 10.7,5.5 10,5.5 C9.3,5.5 8.1,4.7 6.9,4.72 C5.3,4.74 3.8,5.5 2.9,6.72 C1.1,9.1 2.1,12.5 3.9,14.5 C4.8,15.5 5.9,16.7 7.3,16.66 C8.6,16.62 9.1,15.9 10.6,15.9 C12.1,15.9 12.6,16.66 14,16.64 C15.4,16.62 16.4,15.5 17.3,14.48 C18.4,13.16 18.9,11.84 18.92,11.78 C18.88,11.76 14.96,10.1 14.94,9.5 Z" fill="#000000"></path>
        <path d="M12.3,3.5 C13,2.7 13.5,1.5 13.4,0.3 C12.4,0.4 11.2,1 10.5,1.8 C9.9,2.5 9.3,3.7 9.4,4.9 C10.5,5 11.6,4.4 12.3,3.5 Z" fill="#000000"></path>
    </g>
</svg> 